<?xml version="1.0" encoding="UTF-8" standalone="no"?>
<svg
   xmlns:dc="http://purl.org/dc/elements/1.1/"
   xmlns:cc="http://creativecommons.org/ns#"
   xmlns:rdf="http://www.w3.org/1999/02/22-rdf-syntax-ns#"
   xmlns:svg="http://www.w3.org/2000/svg"
   xmlns="http://www.w3.org/2000/svg"
   xmlns:sodipodi="http://sodipodi.sourceforge.net/DTD/sodipodi-0.dtd"
   xmlns:inkscape="http://www.inkscape.org/namespaces/inkscape"
   version="1.1"
   width="44.64407"
   height="44.64407"
   viewBox="0 0 44.64407 44.64407"
   id="svg4"
   sodipodi:docname="server.backgroundCircle.svg"
   inkscape:version="0.92.3 (2405546, 2018-03-11)">
  <metadata
     id="metadata10">
    <rdf:RDF>
      <cc:Work
         rdf:about="">
        <dc:format>image/svg+xml</dc:format>
        <dc:type
           rdf:resource="http://purl.org/dc/dcmitype/StillImage" />
        <dc:title></dc:title>
      </cc:Work>
    </rdf:RDF>
  </metadata>
  <defs
     id="defs8" />
  <sodipodi:namedview
     pagecolor="#ffffff"
     bordercolor="#666666"
     borderopacity="1"
     objecttolerance="10"
     gridtolerance="10"
     guidetolerance="10"
     inkscape:pageopacity="0"
     inkscape:pageshadow="2"
     inkscape:window-width="1920"
     inkscape:window-height="1015"
     id="namedview6"
     showgrid="false"
     fit-margin-top="0"
     fit-margin-left="0"
     fit-margin-right="0"
     fit-margin-bottom="0"
     inkscape:zoom="9.8333333"
     inkscape:cx="4.0677978"
     inkscape:cy="22.881357"
     inkscape:window-x="0"
     inkscape:window-y="0"
     inkscape:window-maximized="1"
     inkscape:current-layer="layer2" />
  <g
     inkscape:groupmode="layer"
     id="layer1"
     inkscape:label="circle"
     transform="translate(8.1355944,9.7627125)">
    <circle
       id="path14"
       cx="14.18644"
       cy="12.559322"
       r="22.322035"
       style="fill:#ffffff;fill-opacity:1;stroke:none"
       inkscape:highlight-color="4278190288" />
  </g>
  <g
     inkscape:groupmode="layer"
     id="layer2"
     inkscape:label="icon"
     transform="translate(8.1355944,9.7627125)">
    <path
       id="path4548"
       d="M 6.1864403,0.99152626 H 22.186441 a 1,1 0 0 1 1,1.00000004 v 4 a 1,1 0 0 1 -1,1 H 6.1864403 a 1,1 0 0 1 -1,-1 v -4 a 1,1 0 0 1 1,-1.00000004 m 0,8.00000004 H 22.186441 a 1,1 0 0 1 1,1 v 3.9999997 a 1,1 0 0 1 -1,1 H 6.1864403 a 1,1 0 0 1 -1,-1 V 9.9915263 a 1,1 0 0 1 1,-1 m 0,7.9999997 H 22.186441 a 1,1 0 0 1 1,1 v 4 a 1,1 0 0 1 -1,1 H 6.1864403 a 1,1 0 0 1 -1,-1 v -4 a 1,1 0 0 1 1,-1 M 11.18644,4.9915263 h 1 v -2 h -1 v 2 m 0,7.9999997 h 1 v -2 h -1 v 2 m 0,8 h 1 v -2 h -1 v 2 M 7.1864403,2.9915263 v 2 h 2 v -2 h -2 m 0,7.9999997 v 2 h 2 v -2 h -2 m 0,8 v 2 h 2 v -2 z"
       inkscape:connector-curvature="0" />
  </g>
</svg>
